PathFileType	4	(X/Y/Z)	ROM_Ellenbogenflex_R 1.trc
DataRate	CameraRate	NumFrames	NumMarkers	Units	OrigDataRate	OrigDataStartFrame	OrigNumFrames
150	150	16	17	mm	150	512	2047
Frame#	Time	ST1			ST2			ST3			RACR1			RACR2			RACR3			RUA1			RUA2			RUA3			RUA4			RLA1			RLA2			RLA3			RLA4			RH1			RH2			RH3		
		X1	Y1	Z1	X2	Y2	Z2	X3	Y3	Z3	X4	Y4	Z4	X5	Y5	Z5	X6	Y6	Z6	X7	Y7	Z7	X8	Y8	Z8	X9	Y9	Z9	X10	Y10	Z10	X11	Y11	Z11	X12	Y12	Z12	X13	Y13	Z13	X14	Y14	Z14	X15	Y15	Z15	X16	Y16	Z16	X17	Y17	Z17
	
512	3.406667	317.659027	1169.593750	-9.813741	336.836700	1115.327271	24.047867	317.025482	1167.626465	46.160732	243.824554	1265.497559	247.828735	203.640945	1165.016968	272.193390	172.777512	1218.560547	176.421524	276.767090	1095.497070	251.521332	291.993073	1044.324219	268.922882	242.733215	1010.231506	263.364899	226.219788	1070.542480	248.464798	395.305878	1045.300415	273.747742	366.450470	1136.476196	315.131897	474.151550	1085.374023	368.611206	454.004944	1025.098389	297.790894	437.152069	1131.477051	260.051849	465.217377	1165.546387	288.086639	485.525146	1115.711914	285.450653
513	3.413333	317.641785	1169.616089	-9.865568	336.834473	1115.330811	24.023485	316.939606	1167.698486	46.161907	243.877502	1265.638794	247.746506	203.824768	1165.162720	272.189636	172.630447	1218.539551	176.334656	277.224121	1095.875122	251.564850	292.655548	1044.858521	269.027802	243.612717	1010.439941	263.405457	226.783859	1070.681519	248.488754	394.452087	1046.777100	273.135010	364.395813	1137.583618	314.406158	473.085480	1088.429443	367.477478	453.519379	1027.589600	297.091553	434.773163	1133.448120	258.984283	462.306976	1168.071899	286.819489	483.485291	1118.608887	284.251984
514	3.420000	317.625366	1169.631836	-9.920424	336.833679	1115.335083	23.992970	316.831238	1167.760376	46.179977	243.968338	1265.773193	247.664429	204.023315	1165.297363	272.189514	172.556091	1218.535278	176.283844	277.683899	1096.225220	251.605133	293.295563	1045.370850	269.124847	244.455612	1010.653198	263.429993	227.341766	1070.826782	248.510849	393.586487	1048.148560	272.494202	362.377197	1138.585205	313.675385	471.997498	1091.336670	366.315796	452.977081	1029.955688	296.424133	432.421661	1135.275391	257.883331	459.426971	1170.420898	285.545563	481.458771	1121.344971	283.010406
515	3.426667	317.616913	1169.646729	-9.984823	336.835999	1115.339722	23.954378	316.731720	1167.782959	46.199703	244.106552	1265.902832	247.578873	204.237137	1165.420166	272.194000	172.563095	1218.550903	176.272461	278.148010	1096.551147	251.639862	293.913605	1045.860107	269.217041	245.263428	1010.870483	263.443329	227.896179	1070.973999	248.527512	392.710358	1049.422852	271.821289	360.375092	1139.485962	312.916656	470.886871	1094.104614	365.121735	452.389893	1032.202271	295.759003	430.093414	1136.964966	256.746918	456.571686	1172.602295	284.263916	479.439148	1123.924316	281.729797
516	3.433333	317.626648	1169.667969	-10.067918	336.844177	1115.343506	23.903015	316.678619	1167.740479	46.200928	244.297913	1266.028320	247.488541	204.466278	1165.530151	272.203644	172.638092	1218.584106	176.293701	278.616302	1096.855957	251.664169	294.509430	1046.324463	269.301514	246.037445	1011.086548	263.450928	228.445526	1071.117920	248.539200	391.828125	1050.605103	271.109406	358.377045	1140.287842	312.112213	469.752258	1096.741333	363.896271	451.776123	1034.333618	295.050262	427.786377	1138.521729	255.578888	453.737976	1174.623047	282.974030	477.420197	1126.350220	280.419556
517	3.440000	317.657196	1169.692627	-10.169468	336.863098	1115.346436	23.830070	316.687653	1167.637573	46.172279	244.542480	1266.148071	247.394562	204.710190	1165.627563	272.219635	172.760605	1218.630737	176.339066	279.085510	1097.142090	251.675262	295.083527	1046.761841	269.370361	246.779770	1011.295532	263.454926	228.983643	1071.254883	248.551712	390.947296	1051.699097	270.351532	356.381409	1140.993042	311.258698	468.592712	1099.254639	362.645996	451.149292	1036.350342	294.267761	425.500183	1139.947754	254.389404	450.926331	1176.489868	281.676697	475.399200	1128.627075	279.091431
518	3.446667	317.698334	1169.704346	-10.274944	336.899872	1115.349854	23.722967	316.742950	1167.511108	46.116779	244.833588	1266.259155	247.299866	204.966873	1165.714722	272.243317	172.910919	1218.686279	176.402344	279.548035	1097.412354	251.674637	295.637543	1047.170166	269.416931	247.492294	1011.494568	263.457367	229.502640	1071.383423	248.570923	390.075500	1052.708984	269.546600	354.392487	1141.604492	310.361938	467.408691	1101.652100	361.381927	450.513214	1038.250854	293.411804	423.234344	1141.243896	253.195847	448.140289	1178.209473	280.373627	473.378510	1130.762085	277.756897
519	3.453333	317.731628	1169.683228	-10.362736	336.962372	1115.356079	23.567797	316.817322	1167.398193	46.044975	245.157837	1266.356812	247.208817	205.232834	1165.795166	272.275177	173.073349	1218.746948	176.479736	279.993866	1097.669800	251.667130	296.173645	1047.549194	269.440704	248.174713	1011.683411	263.463806	229.996857	1071.503540	248.597122	389.215393	1053.638428	268.709625	352.415375	1142.125488	309.431641	466.201813	1103.938477	360.116425	449.866486	1040.033936	292.501678	420.987335	1142.411377	252.021347	445.385193	1179.788818	279.065643	471.365082	1132.764404	276.425232
520	3.460000	317.740356	1169.621338	-10.416345	337.054443	1115.366943	23.356495	316.890076	1167.314087	45.967876	245.496658	1266.436035	247.127029	205.503860	1165.873779	272.314117	173.237274	1218.810059	176.568314	280.414734	1097.916504	251.658081	296.692749	1047.899902	269.446960	248.825668	1011.861206	263.480133	230.465469	1071.615356	248.624649	388.360931	1054.487793	267.876190	350.454590	1142.558105	308.479462	464.975098	1106.113403	358.859924	449.207916	1041.701538	291.560516	418.756866	1143.451904	250.891373	442.667175	1181.235840	277.752991	469.367645	1134.642090	275.102142
521	3.466667	317.719513	1169.528809	-10.433582	337.165375	1115.382324	23.102139	316.949371	1167.255493	45.894779	245.830338	1266.492065	247.059799	205.775284	1165.953247	272.357056	173.397049	1218.873779	176.664337	280.806915	1098.150513	251.650772	297.192932	1048.223511	269.442780	249.445999	1012.024780	263.507965	230.912140	1071.716919	248.645401	387.502197	1055.255127	267.087311	348.513580	1142.903809	307.519165	463.733673	1108.174316	357.619812	448.537750	1043.258423	290.607788	416.540833	1144.368164	249.826187	439.991333	1182.561768	276.436127	467.393005	1136.401733	273.788940
522	3.473333	317.678833	1169.426636	-10.426600	337.262939	1115.397705	22.849148	316.991302	1167.213013	45.831768	246.144318	1266.523804	247.008118	206.041824	1166.033569	272.399536	173.550842	1218.936035	176.762756	281.172089	1098.366821	251.645889	297.671783	1048.520142	269.432953	250.039764	1012.169434	263.544403	231.341446	1071.803711	248.653519	386.635529	1055.939453	266.367859	346.594238	1143.162964	306.566498	462.484802	1110.120728	356.400604	447.856628	1044.710449	289.658051	414.341766	1145.166260	248.826706	437.360504	1183.778564	275.116089	465.445862	1138.049194	272.482849
523	3.480000	317.635437	1169.333984	-10.412919	337.306000	1115.405518	22.651680	317.018860	1167.178345	45.780518	246.433640	1266.534424	246.965607	206.297653	1166.111084	272.436615	173.699005	1218.993774	176.857513	281.515900	1098.558594	251.641602	298.130096	1048.790161	269.418152	250.611526	1012.291626	263.584839	231.755219	1071.870361	248.648712	385.766602	1056.543945	265.722473	344.698303	1143.335693	305.637238	461.235504	1111.954346	355.203857	447.164429	1046.063477	288.721497	412.170898	1145.857178	247.865585	434.776367	1184.897583	273.794281	463.530884	1139.591309	271.176697
524	3.486667	317.602386	1169.260498	-10.405384	337.271088	1115.399536	22.533787	317.038910	1167.146362	45.739479	246.700272	1266.529663	246.923019	206.536896	1166.179565	272.464325	173.841492	1219.043579	176.942886	281.845673	1098.720703	251.633301	298.571320	1049.034912	269.396179	251.163437	1012.390747	263.625732	232.151154	1071.914551	248.635941	384.905609	1057.073486	265.143250	342.830536	1143.423828	304.743042	459.989868	1113.677734	354.029968	446.461182	1047.323242	287.803436	410.043945	1146.454346	246.901260	432.240173	1185.929443	272.471588	461.653076	1141.036743	269.858734
525	3.493333	317.583862	1169.206299	-10.408261	337.167053	1115.379028	22.480230	317.057831	1167.115479	45.706455	246.945541	1266.512085	246.876617	206.754776	1166.231689	272.481018	173.976395	1219.082153	177.015152	282.166412	1098.852783	251.615112	298.998077	1049.257690	269.364899	251.694580	1012.469971	263.666321	232.524338	1071.937012	248.622177	384.060883	1057.532471	264.614746	341.004150	1143.431641	303.887054	458.747559	1115.294800	352.881287	445.748901	1048.497559	286.901917	407.970490	1146.969727	245.905579	429.750092	1186.885864	271.148743	459.815643	1142.395874	268.518677
526	3.500000	317.578644	1169.167725	-10.419937	337.030701	1115.348022	22.460955	317.078735	1167.085327	45.679897	247.166397	1266.480713	246.830887	206.948547	1166.260254	272.487976	174.100571	1219.105835	177.073746	282.478271	1098.958618	251.583817	299.408600	1049.461792	269.324371	252.202164	1012.534668	263.707031	232.869812	1071.941406	248.613602	383.233185	1057.925659	264.112610	339.243774	1143.369629	303.060638	457.503418	1116.811890	351.761688	445.032745	1049.595825	286.006592	405.949524	1147.411621	244.875153	427.297150	1187.774902	269.827759	458.014069	1143.677612	267.161072
527	3.506667	317.584839	1169.140869	-10.437531	336.906525	1115.312622	22.452492	317.102020	1167.055908	45.658699	247.357834	1266.433960	246.793793	207.117142	1166.260742	272.488098	174.210846	1219.110718	177.121094	282.776672	1099.043457	251.541016	299.797394	1049.650024	269.277039	252.682999	1012.589966	263.745697	233.184631	1071.932495	248.613953	382.413910	1058.259399	263.600922	337.574341	1143.252441	302.246155	456.248291	1118.239258	350.674072	444.321075	1050.627563	285.099609	403.973328	1147.787476	243.821686	424.863831	1188.596802	268.514587	456.230713	1144.885986	265.814575
